# xmcd CD database file
#
# Track frame offsets:
#	150
#	18190
#	35093
#	55055
#	74763
#	86295
#	107490
#	125955
#	145318
#
# Disc length: 2230 seconds
#
# Revision: 2
# Processed by: cddbd v1.5PL3 Copyright (c) Steve Scherf et al.
# Submitted via: CDex 1.51
#
DISCID=7e08b409
DTITLE=GRIM REAPER - Rock You To Hell
DYEAR=1987
DGENRE=Metal
TTITLE0=Rock You To Hell
TTITLE1=Night Of The Vampire
TTITLE2=Lust For Freedom
TTITLE3=When Heaven Comes Down
TTITLE4=Suck It And See
TTITLE5=Rock Me 'Till I Die
TTITLE6=You'll Wish You Were Never Born
TTITLE7=Waysted Love
TTITLE8=I Want More
EXTD=YEAR: 1987
EXTT0=
EXTT1=
EXTT2=
EXTT3=
EXTT4=
EXTT5=
EXTT6=
EXTT7=
EXTT8=
PLAYORDER=
